<svg width="45" height="78" viewBox="0 0 45 78" fill="none" xmlns="http://www.w3.org/2000/svg">
<path d="M0.219996 56.92C0.219996 51.36 1.98 46.58 5.5 42.58L11.2 48.04C10.12 49.56 9.34 50.94 8.86 52.18C8.34 53.38 8.08 54.76 8.08 56.32C8.08 59.32 9.24 61.68 11.56 63.4C13.88 65.08 17.42 65.92 22.18 65.92C25.66 65.92 28.42 65.64 30.46 65.08C32.46 64.52 33.9 63.68 34.78 62.56C35.66 61.4 36.1 59.92 36.1 58.12C36.1 56.32 35.72 54.68 34.96 53.2H26.38V57.94L18.76 59.02L18.76 42.46H39.52C40.96 44.62 42.08 47.06 42.88 49.78C43.68 52.5 44.08 55.18 44.08 57.82C44.08 70.86 36.76 77.38 22.12 77.38C17.56 77.38 13.64 76.5 10.36 74.74C7.04 72.94 4.52 70.5 2.8 67.42C1.08 64.34 0.219996 60.84 0.219996 56.92ZM0.219996 19.3352C0.219996 13.2952 2.14 8.59515 5.98 5.23515C9.82 1.87515 15.2 0.195154 22.12 0.195154C26.64 0.195154 30.56 0.955154 33.88 2.47515C37.16 3.95515 39.68 6.13515 41.44 9.01516C43.2 11.8952 44.08 15.3352 44.08 19.3352C44.08 25.3752 42.16 30.0752 38.32 33.4352C34.48 36.7552 29.08 38.4152 22.12 38.4152C17.6 38.4152 13.7 37.6752 10.42 36.1952C7.14 34.6752 4.62 32.4952 2.86 29.6552C1.1 26.7752 0.219996 23.3352 0.219996 19.3352ZM8.2 19.3352C8.2 21.9352 9.28 23.8552 11.44 25.0952C13.6 26.2952 17.16 26.8952 22.12 26.8952C27.08 26.8952 30.66 26.2752 32.86 25.0352C35.02 23.7952 36.1 21.8952 36.1 19.3352C36.1 16.6952 35.02 14.7752 32.86 13.5752C30.7 12.3752 27.12 11.7752 22.12 11.7752C17.16 11.7752 13.6 12.3752 11.44 13.5752C9.28 14.7752 8.2 16.6952 8.2 19.3352Z" fill="white"/>
</svg>
